<mxfile host="app.diagrams.net" modified="2023-09-10T15:24:01.095Z" agent="Mozilla/5.0 (Windows NT 10.0; Win64; x64; rv:109.0) Gecko/20100101 Firefox/117.0" etag="FLDk0b11lQ9sNNbw4RWO" version="21.7.4" type="github">
  <diagram id="C5RBs43oDa-KdzZeNtuy" name="Page-1">
    <mxGraphModel dx="2261" dy="754" grid="1" gridSize="10" guides="1" tooltips="1" connect="1" arrows="1" fold="1" page="1" pageScale="1" pageWidth="827" pageHeight="1169" math="0" shadow="0">
      <root>
        <mxCell id="WIyWlLk6GJQsqaUBKTNV-0" />
        <mxCell id="WIyWlLk6GJQsqaUBKTNV-1" parent="WIyWlLk6GJQsqaUBKTNV-0" />
        <mxCell id="WIyWlLk6GJQsqaUBKTNV-2" value="" style="rounded=0;html=1;jettySize=auto;orthogonalLoop=1;fontSize=11;endArrow=block;endFill=0;endSize=8;strokeWidth=1;shadow=0;labelBackgroundColor=none;edgeStyle=orthogonalEdgeStyle;" parent="WIyWlLk6GJQsqaUBKTNV-1" source="WIyWlLk6GJQsqaUBKTNV-3" target="WIyWlLk6GJQsqaUBKTNV-6" edge="1">
          <mxGeometry relative="1" as="geometry">
            <Array as="points">
              <mxPoint x="297.5" y="130" />
              <mxPoint x="297.5" y="130" />
            </Array>
          </mxGeometry>
        </mxCell>
        <mxCell id="WIyWlLk6GJQsqaUBKTNV-3" value="Início do ciclo" style="rounded=1;whiteSpace=wrap;html=1;fontSize=12;glass=0;strokeWidth=1;shadow=0;" parent="WIyWlLk6GJQsqaUBKTNV-1" vertex="1">
          <mxGeometry x="247.5" y="80" width="120" height="40" as="geometry" />
        </mxCell>
        <mxCell id="WIyWlLk6GJQsqaUBKTNV-5" value="Não" style="edgeStyle=orthogonalEdgeStyle;rounded=0;html=1;jettySize=auto;orthogonalLoop=1;fontSize=11;endArrow=block;endFill=0;endSize=8;strokeWidth=1;shadow=0;labelBackgroundColor=none;" parent="WIyWlLk6GJQsqaUBKTNV-1" source="WIyWlLk6GJQsqaUBKTNV-6" target="WIyWlLk6GJQsqaUBKTNV-7" edge="1">
          <mxGeometry x="0.0625" y="15" relative="1" as="geometry">
            <mxPoint as="offset" />
            <Array as="points">
              <mxPoint x="412.5" y="195" />
              <mxPoint x="412.5" y="195" />
            </Array>
          </mxGeometry>
        </mxCell>
        <mxCell id="WIyWlLk6GJQsqaUBKTNV-6" value="&lt;font style=&quot;font-size: 10px;&quot;&gt;Ovos inseridos?&lt;/font&gt;" style="rhombus;whiteSpace=wrap;html=1;shadow=0;fontFamily=Helvetica;fontSize=12;align=center;strokeWidth=1;spacing=6;spacingTop=-4;" parent="WIyWlLk6GJQsqaUBKTNV-1" vertex="1">
          <mxGeometry x="257.5" y="160" width="80" height="70" as="geometry" />
        </mxCell>
        <mxCell id="WIyWlLk6GJQsqaUBKTNV-7" value="Realizar limpeza" style="rounded=1;whiteSpace=wrap;html=1;fontSize=12;glass=0;strokeWidth=1;shadow=0;" parent="WIyWlLk6GJQsqaUBKTNV-1" vertex="1">
          <mxGeometry x="467.5" y="175" width="120" height="40" as="geometry" />
        </mxCell>
        <mxCell id="MwYGbnp451no8yMFaxm8-2" value="Sim" style="edgeStyle=orthogonalEdgeStyle;rounded=0;html=1;jettySize=auto;orthogonalLoop=1;fontSize=11;endArrow=block;endFill=0;endSize=8;strokeWidth=1;shadow=0;labelBackgroundColor=none;exitX=0.5;exitY=1;exitDx=0;exitDy=0;entryX=0.5;entryY=0;entryDx=0;entryDy=0;" edge="1" parent="WIyWlLk6GJQsqaUBKTNV-1" source="WIyWlLk6GJQsqaUBKTNV-6" target="MwYGbnp451no8yMFaxm8-7">
          <mxGeometry y="10" relative="1" as="geometry">
            <mxPoint as="offset" />
            <mxPoint x="412.5" y="250" as="sourcePoint" />
            <mxPoint x="476.5" y="250" as="targetPoint" />
          </mxGeometry>
        </mxCell>
        <mxCell id="MwYGbnp451no8yMFaxm8-3" value="" style="edgeStyle=orthogonalEdgeStyle;rounded=0;html=1;jettySize=auto;orthogonalLoop=1;fontSize=11;endArrow=block;endFill=0;endSize=8;strokeWidth=1;shadow=0;labelBackgroundColor=none;exitX=0.5;exitY=0;exitDx=0;exitDy=0;entryX=1;entryY=0.5;entryDx=0;entryDy=0;" edge="1" parent="WIyWlLk6GJQsqaUBKTNV-1" source="WIyWlLk6GJQsqaUBKTNV-7" target="WIyWlLk6GJQsqaUBKTNV-3">
          <mxGeometry x="-1" y="-191" relative="1" as="geometry">
            <mxPoint x="-171" y="190" as="offset" />
            <mxPoint x="532.5" y="120" as="sourcePoint" />
            <mxPoint x="382.5" y="100" as="targetPoint" />
            <Array as="points">
              <mxPoint x="527.5" y="100" />
            </Array>
          </mxGeometry>
        </mxCell>
        <mxCell id="MwYGbnp451no8yMFaxm8-12" value="" style="edgeStyle=orthogonalEdgeStyle;rounded=0;orthogonalLoop=1;jettySize=auto;html=1;" edge="1" parent="WIyWlLk6GJQsqaUBKTNV-1" source="MwYGbnp451no8yMFaxm8-7" target="MwYGbnp451no8yMFaxm8-11">
          <mxGeometry relative="1" as="geometry" />
        </mxCell>
        <mxCell id="MwYGbnp451no8yMFaxm8-7" value="Ajustar parâmetros" style="rounded=1;whiteSpace=wrap;html=1;fontSize=12;glass=0;strokeWidth=1;shadow=0;" vertex="1" parent="WIyWlLk6GJQsqaUBKTNV-1">
          <mxGeometry x="237.5" y="290" width="120" height="40" as="geometry" />
        </mxCell>
        <mxCell id="MwYGbnp451no8yMFaxm8-24" style="edgeStyle=orthogonalEdgeStyle;rounded=0;orthogonalLoop=1;jettySize=auto;html=1;exitX=1;exitY=0.5;exitDx=0;exitDy=0;entryX=0;entryY=0.5;entryDx=0;entryDy=0;" edge="1" parent="WIyWlLk6GJQsqaUBKTNV-1" source="MwYGbnp451no8yMFaxm8-11" target="MwYGbnp451no8yMFaxm8-14">
          <mxGeometry relative="1" as="geometry" />
        </mxCell>
        <mxCell id="MwYGbnp451no8yMFaxm8-38" value="" style="edgeStyle=orthogonalEdgeStyle;rounded=0;orthogonalLoop=1;jettySize=auto;html=1;" edge="1" parent="WIyWlLk6GJQsqaUBKTNV-1" source="MwYGbnp451no8yMFaxm8-11" target="MwYGbnp451no8yMFaxm8-25">
          <mxGeometry relative="1" as="geometry">
            <Array as="points">
              <mxPoint x="298" y="510" />
              <mxPoint x="228" y="510" />
            </Array>
          </mxGeometry>
        </mxCell>
        <mxCell id="MwYGbnp451no8yMFaxm8-44" value="" style="edgeStyle=orthogonalEdgeStyle;rounded=0;orthogonalLoop=1;jettySize=auto;html=1;" edge="1" parent="WIyWlLk6GJQsqaUBKTNV-1" source="MwYGbnp451no8yMFaxm8-11" target="MwYGbnp451no8yMFaxm8-43">
          <mxGeometry relative="1" as="geometry" />
        </mxCell>
        <mxCell id="MwYGbnp451no8yMFaxm8-11" value="Controle dos parâmetros" style="rounded=1;whiteSpace=wrap;html=1;fontSize=12;glass=0;strokeWidth=1;shadow=0;" vertex="1" parent="WIyWlLk6GJQsqaUBKTNV-1">
          <mxGeometry x="237.5" y="380" width="120" height="40" as="geometry" />
        </mxCell>
        <mxCell id="MwYGbnp451no8yMFaxm8-20" value="" style="edgeStyle=orthogonalEdgeStyle;rounded=0;orthogonalLoop=1;jettySize=auto;html=1;" edge="1" parent="WIyWlLk6GJQsqaUBKTNV-1" source="MwYGbnp451no8yMFaxm8-14" target="MwYGbnp451no8yMFaxm8-17">
          <mxGeometry relative="1" as="geometry" />
        </mxCell>
        <mxCell id="MwYGbnp451no8yMFaxm8-22" value="Não" style="edgeLabel;html=1;align=center;verticalAlign=middle;resizable=0;points=[];" vertex="1" connectable="0" parent="MwYGbnp451no8yMFaxm8-20">
          <mxGeometry x="-0.3481" y="-2" relative="1" as="geometry">
            <mxPoint x="15" y="1" as="offset" />
          </mxGeometry>
        </mxCell>
        <mxCell id="MwYGbnp451no8yMFaxm8-21" value="" style="edgeStyle=orthogonalEdgeStyle;rounded=0;orthogonalLoop=1;jettySize=auto;html=1;" edge="1" parent="WIyWlLk6GJQsqaUBKTNV-1" source="MwYGbnp451no8yMFaxm8-14" target="MwYGbnp451no8yMFaxm8-16">
          <mxGeometry relative="1" as="geometry" />
        </mxCell>
        <mxCell id="MwYGbnp451no8yMFaxm8-23" value="Sim" style="edgeLabel;html=1;align=center;verticalAlign=middle;resizable=0;points=[];" vertex="1" connectable="0" parent="MwYGbnp451no8yMFaxm8-21">
          <mxGeometry x="-0.3846" y="-3" relative="1" as="geometry">
            <mxPoint x="15" y="-13" as="offset" />
          </mxGeometry>
        </mxCell>
        <mxCell id="MwYGbnp451no8yMFaxm8-14" value="&lt;font style=&quot;font-size: 8px;&quot;&gt;Temperatura ideal?&lt;/font&gt;" style="rhombus;whiteSpace=wrap;html=1;shadow=0;fontFamily=Helvetica;fontSize=12;align=center;strokeWidth=1;spacing=6;spacingTop=-4;" vertex="1" parent="WIyWlLk6GJQsqaUBKTNV-1">
          <mxGeometry x="437.5" y="365" width="75" height="70" as="geometry" />
        </mxCell>
        <mxCell id="MwYGbnp451no8yMFaxm8-62" style="edgeStyle=orthogonalEdgeStyle;rounded=0;orthogonalLoop=1;jettySize=auto;html=1;exitX=0.5;exitY=0;exitDx=0;exitDy=0;entryX=0.75;entryY=0;entryDx=0;entryDy=0;" edge="1" parent="WIyWlLk6GJQsqaUBKTNV-1" source="MwYGbnp451no8yMFaxm8-16" target="MwYGbnp451no8yMFaxm8-11">
          <mxGeometry relative="1" as="geometry">
            <Array as="points">
              <mxPoint x="640" y="350" />
              <mxPoint x="328" y="350" />
            </Array>
          </mxGeometry>
        </mxCell>
        <mxCell id="MwYGbnp451no8yMFaxm8-16" value="Manter brilho da lâmpada" style="rounded=1;whiteSpace=wrap;html=1;fontSize=12;glass=0;strokeWidth=1;shadow=0;" vertex="1" parent="WIyWlLk6GJQsqaUBKTNV-1">
          <mxGeometry x="580" y="380" width="120" height="40" as="geometry" />
        </mxCell>
        <mxCell id="MwYGbnp451no8yMFaxm8-63" style="edgeStyle=orthogonalEdgeStyle;rounded=0;orthogonalLoop=1;jettySize=auto;html=1;exitX=0.5;exitY=1;exitDx=0;exitDy=0;entryX=0.858;entryY=1.092;entryDx=0;entryDy=0;entryPerimeter=0;" edge="1" parent="WIyWlLk6GJQsqaUBKTNV-1">
          <mxGeometry relative="1" as="geometry">
            <mxPoint x="467.5" y="516.32" as="sourcePoint" />
            <mxPoint x="332.9600000000005" y="419.99999999999983" as="targetPoint" />
            <Array as="points">
              <mxPoint x="467.5" y="536.32" />
              <mxPoint x="333.5" y="536.32" />
            </Array>
          </mxGeometry>
        </mxCell>
        <mxCell id="MwYGbnp451no8yMFaxm8-17" value="Aumentar brilho da lâmpada" style="rounded=1;whiteSpace=wrap;html=1;fontSize=12;glass=0;strokeWidth=1;shadow=0;" vertex="1" parent="WIyWlLk6GJQsqaUBKTNV-1">
          <mxGeometry x="415" y="480" width="120" height="40" as="geometry" />
        </mxCell>
        <mxCell id="MwYGbnp451no8yMFaxm8-33" value="" style="edgeStyle=orthogonalEdgeStyle;rounded=0;orthogonalLoop=1;jettySize=auto;html=1;" edge="1" parent="WIyWlLk6GJQsqaUBKTNV-1" source="MwYGbnp451no8yMFaxm8-25" target="MwYGbnp451no8yMFaxm8-32">
          <mxGeometry relative="1" as="geometry" />
        </mxCell>
        <mxCell id="MwYGbnp451no8yMFaxm8-34" value="Não" style="edgeLabel;html=1;align=center;verticalAlign=middle;resizable=0;points=[];" vertex="1" connectable="0" parent="MwYGbnp451no8yMFaxm8-33">
          <mxGeometry x="0.2759" y="-3" relative="1" as="geometry">
            <mxPoint x="16" y="-6" as="offset" />
          </mxGeometry>
        </mxCell>
        <mxCell id="MwYGbnp451no8yMFaxm8-36" value="" style="edgeStyle=orthogonalEdgeStyle;rounded=0;orthogonalLoop=1;jettySize=auto;html=1;" edge="1" parent="WIyWlLk6GJQsqaUBKTNV-1" source="MwYGbnp451no8yMFaxm8-25" target="MwYGbnp451no8yMFaxm8-35">
          <mxGeometry relative="1" as="geometry" />
        </mxCell>
        <mxCell id="MwYGbnp451no8yMFaxm8-37" value="Sim" style="edgeLabel;html=1;align=center;verticalAlign=middle;resizable=0;points=[];" vertex="1" connectable="0" parent="MwYGbnp451no8yMFaxm8-36">
          <mxGeometry x="-0.398" y="3" relative="1" as="geometry">
            <mxPoint x="-9" y="-18" as="offset" />
          </mxGeometry>
        </mxCell>
        <mxCell id="MwYGbnp451no8yMFaxm8-25" value="&lt;font style=&quot;font-size: 8px;&quot;&gt;Umidade ideal?&lt;/font&gt;" style="rhombus;whiteSpace=wrap;html=1;shadow=0;fontFamily=Helvetica;fontSize=12;align=center;strokeWidth=1;spacing=6;spacingTop=-4;" vertex="1" parent="WIyWlLk6GJQsqaUBKTNV-1">
          <mxGeometry x="190" y="550" width="75" height="70" as="geometry" />
        </mxCell>
        <mxCell id="MwYGbnp451no8yMFaxm8-70" style="edgeStyle=orthogonalEdgeStyle;rounded=0;orthogonalLoop=1;jettySize=auto;html=1;exitX=0.5;exitY=1;exitDx=0;exitDy=0;entryX=0.646;entryY=1.075;entryDx=0;entryDy=0;entryPerimeter=0;" edge="1" parent="WIyWlLk6GJQsqaUBKTNV-1" source="MwYGbnp451no8yMFaxm8-32" target="MwYGbnp451no8yMFaxm8-11">
          <mxGeometry relative="1" as="geometry" />
        </mxCell>
        <mxCell id="MwYGbnp451no8yMFaxm8-32" value="Repor água" style="rounded=1;whiteSpace=wrap;html=1;fontSize=12;glass=0;strokeWidth=1;shadow=0;" vertex="1" parent="WIyWlLk6GJQsqaUBKTNV-1">
          <mxGeometry x="167.5" y="660" width="120" height="40" as="geometry" />
        </mxCell>
        <mxCell id="MwYGbnp451no8yMFaxm8-69" style="edgeStyle=orthogonalEdgeStyle;rounded=0;orthogonalLoop=1;jettySize=auto;html=1;exitX=0.5;exitY=0;exitDx=0;exitDy=0;entryX=0.363;entryY=1.075;entryDx=0;entryDy=0;entryPerimeter=0;" edge="1" parent="WIyWlLk6GJQsqaUBKTNV-1" source="MwYGbnp451no8yMFaxm8-35" target="MwYGbnp451no8yMFaxm8-11">
          <mxGeometry relative="1" as="geometry">
            <mxPoint x="180" y="490" as="targetPoint" />
          </mxGeometry>
        </mxCell>
        <mxCell id="MwYGbnp451no8yMFaxm8-35" value="Não repor água" style="rounded=1;whiteSpace=wrap;html=1;fontSize=12;glass=0;strokeWidth=1;shadow=0;" vertex="1" parent="WIyWlLk6GJQsqaUBKTNV-1">
          <mxGeometry y="565" width="120" height="40" as="geometry" />
        </mxCell>
        <mxCell id="MwYGbnp451no8yMFaxm8-54" style="edgeStyle=orthogonalEdgeStyle;rounded=0;orthogonalLoop=1;jettySize=auto;html=1;entryX=1;entryY=0.5;entryDx=0;entryDy=0;exitX=1;exitY=0.5;exitDx=0;exitDy=0;" edge="1" parent="WIyWlLk6GJQsqaUBKTNV-1" source="MwYGbnp451no8yMFaxm8-39" target="WIyWlLk6GJQsqaUBKTNV-7">
          <mxGeometry relative="1" as="geometry">
            <mxPoint x="610" y="200" as="targetPoint" />
            <mxPoint x="560" y="775" as="sourcePoint" />
            <Array as="points">
              <mxPoint x="730" y="780" />
              <mxPoint x="730" y="195" />
            </Array>
          </mxGeometry>
        </mxCell>
        <mxCell id="MwYGbnp451no8yMFaxm8-46" value="" style="edgeStyle=orthogonalEdgeStyle;rounded=0;orthogonalLoop=1;jettySize=auto;html=1;" edge="1" parent="WIyWlLk6GJQsqaUBKTNV-1" source="MwYGbnp451no8yMFaxm8-43">
          <mxGeometry relative="1" as="geometry">
            <mxPoint x="152.5" y="280" as="targetPoint" />
          </mxGeometry>
        </mxCell>
        <mxCell id="MwYGbnp451no8yMFaxm8-52" value="Sim" style="edgeLabel;html=1;align=center;verticalAlign=middle;resizable=0;points=[];" vertex="1" connectable="0" parent="MwYGbnp451no8yMFaxm8-46">
          <mxGeometry x="-0.2824" relative="1" as="geometry">
            <mxPoint x="-12" y="-4" as="offset" />
          </mxGeometry>
        </mxCell>
        <mxCell id="MwYGbnp451no8yMFaxm8-50" value="" style="edgeStyle=orthogonalEdgeStyle;rounded=0;orthogonalLoop=1;jettySize=auto;html=1;" edge="1" parent="WIyWlLk6GJQsqaUBKTNV-1" source="MwYGbnp451no8yMFaxm8-43" target="MwYGbnp451no8yMFaxm8-49">
          <mxGeometry relative="1" as="geometry" />
        </mxCell>
        <mxCell id="MwYGbnp451no8yMFaxm8-51" value="Não" style="edgeLabel;html=1;align=center;verticalAlign=middle;resizable=0;points=[];" vertex="1" connectable="0" parent="MwYGbnp451no8yMFaxm8-50">
          <mxGeometry x="0.0148" y="1" relative="1" as="geometry">
            <mxPoint y="9" as="offset" />
          </mxGeometry>
        </mxCell>
        <mxCell id="MwYGbnp451no8yMFaxm8-43" value="&lt;font style=&quot;font-size: 8px;&quot;&gt;4 dias antes do fim do ciclo?&lt;/font&gt;" style="rhombus;whiteSpace=wrap;html=1;shadow=0;fontFamily=Helvetica;fontSize=12;align=center;strokeWidth=1;spacing=6;spacingTop=-4;" vertex="1" parent="WIyWlLk6GJQsqaUBKTNV-1">
          <mxGeometry x="115" y="365" width="75" height="70" as="geometry" />
        </mxCell>
        <mxCell id="MwYGbnp451no8yMFaxm8-66" style="edgeStyle=orthogonalEdgeStyle;rounded=0;orthogonalLoop=1;jettySize=auto;html=1;exitX=0.5;exitY=1;exitDx=0;exitDy=0;entryX=0.251;entryY=1.075;entryDx=0;entryDy=0;entryPerimeter=0;" edge="1" parent="WIyWlLk6GJQsqaUBKTNV-1">
          <mxGeometry relative="1" as="geometry">
            <mxPoint x="264.9999999999999" y="423" as="targetPoint" />
            <mxPoint x="7.38" y="420" as="sourcePoint" />
            <Array as="points">
              <mxPoint x="7" y="450" />
              <mxPoint x="265" y="450" />
            </Array>
          </mxGeometry>
        </mxCell>
        <mxCell id="MwYGbnp451no8yMFaxm8-49" value="Servomecanismo ativo" style="rounded=1;whiteSpace=wrap;html=1;fontSize=12;glass=0;strokeWidth=1;shadow=0;" vertex="1" parent="WIyWlLk6GJQsqaUBKTNV-1">
          <mxGeometry x="-50" y="380" width="120" height="40" as="geometry" />
        </mxCell>
        <mxCell id="MwYGbnp451no8yMFaxm8-68" style="edgeStyle=orthogonalEdgeStyle;rounded=0;orthogonalLoop=1;jettySize=auto;html=1;exitX=0;exitY=0.5;exitDx=0;exitDy=0;entryX=0;entryY=0.5;entryDx=0;entryDy=0;" edge="1" parent="WIyWlLk6GJQsqaUBKTNV-1" source="MwYGbnp451no8yMFaxm8-53" target="MwYGbnp451no8yMFaxm8-39">
          <mxGeometry relative="1" as="geometry">
            <Array as="points">
              <mxPoint x="-90" y="260" />
              <mxPoint x="-90" y="780" />
            </Array>
          </mxGeometry>
        </mxCell>
        <mxCell id="MwYGbnp451no8yMFaxm8-53" value="Servomecanismo desativado" style="rounded=1;whiteSpace=wrap;html=1;fontSize=12;glass=0;strokeWidth=1;shadow=0;" vertex="1" parent="WIyWlLk6GJQsqaUBKTNV-1">
          <mxGeometry x="92.5" y="240" width="120" height="40" as="geometry" />
        </mxCell>
        <mxCell id="MwYGbnp451no8yMFaxm8-39" value="Nascimento e fim do ciclo" style="rounded=1;whiteSpace=wrap;html=1;fontSize=12;glass=0;strokeWidth=1;shadow=0;" vertex="1" parent="WIyWlLk6GJQsqaUBKTNV-1">
          <mxGeometry x="237.5" y="760" width="120" height="40" as="geometry" />
        </mxCell>
      </root>
    </mxGraphModel>
  </diagram>
</mxfile>
